<svg width="251" height="48" viewBox="0 0 251 48" fill="none" xmlns="http://www.w3.org/2000/svg">
<path d="M2.52841 39V9.90909H8.67898V22.7358H9.0625L19.5312 9.90909H26.9034L16.108 22.9347L27.0312 39H19.6733L11.7045 27.0398L8.67898 30.733V39H2.52841ZM29.3065 39V9.90909H48.5679V14.9801H35.4571V21.9119H47.2895V26.983H35.4571V39H29.3065ZM69.8737 9.90909H76.0243V28.8011C76.0243 30.9223 75.5177 32.7784 74.5044 34.3693C73.5006 35.9602 72.0944 37.2008 70.2857 38.0909C68.4769 38.9716 66.3699 39.4119 63.9646 39.4119C61.5499 39.4119 59.4381 38.9716 57.6294 38.0909C55.8207 37.2008 54.4144 35.9602 53.4107 34.3693C52.4069 32.7784 51.905 30.9223 51.905 28.8011V9.90909H58.0555V28.2756C58.0555 29.3835 58.297 30.3684 58.78 31.2301C59.2724 32.0919 59.9637 32.7689 60.8538 33.2614C61.744 33.7538 62.7809 34 63.9646 34C65.1578 34 66.1947 33.7538 67.0754 33.2614C67.9656 32.7689 68.6521 32.0919 69.1351 31.2301C69.6275 30.3684 69.8737 29.3835 69.8737 28.2756V9.90909ZM80.2847 39V9.90909H91.7619C93.9684 9.90909 95.8481 10.3305 97.4011 11.1733C98.9542 12.0066 100.138 13.1667 100.952 14.6534C101.776 16.1307 102.188 17.8352 102.188 19.767C102.188 21.6989 101.771 23.4034 100.938 24.8807C100.105 26.358 98.8973 27.5085 97.3159 28.3324C95.7439 29.1562 93.8405 29.5682 91.6057 29.5682H84.2903V24.6392H90.6114C91.7951 24.6392 92.7705 24.4356 93.5375 24.0284C94.314 23.6117 94.8917 23.0388 95.2705 22.3097C95.6587 21.571 95.8528 20.7235 95.8528 19.767C95.8528 18.8011 95.6587 17.9583 95.2705 17.2386C94.8917 16.5095 94.314 15.946 93.5375 15.5483C92.761 15.1411 91.7761 14.9375 90.583 14.9375H86.4352V39H80.2847ZM105.383 9.90909H112.968L120.98 29.4545H121.321L129.332 9.90909H136.917V39H130.951V20.0653H130.71L123.181 38.858H119.119L111.59 19.9943H111.349V39H105.383V9.90909ZM141.185 39V9.90909H152.832C154.973 9.90909 156.758 10.2263 158.188 10.8608C159.617 11.4953 160.692 12.3759 161.412 13.5028C162.132 14.6203 162.491 15.9081 162.491 17.3665C162.491 18.5028 162.264 19.5019 161.81 20.3636C161.355 21.2159 160.73 21.9167 159.935 22.4659C159.149 23.0057 158.249 23.3892 157.236 23.6165V23.9006C158.344 23.9479 159.381 24.2604 160.347 24.8381C161.322 25.4157 162.113 26.2254 162.719 27.267C163.325 28.2992 163.628 29.5303 163.628 30.9602C163.628 32.5038 163.244 33.8816 162.477 35.0938C161.72 36.2964 160.598 37.2481 159.111 37.9489C157.624 38.6496 155.792 39 153.614 39H141.185ZM147.335 33.9716H152.349C154.063 33.9716 155.313 33.6449 156.099 32.9915C156.885 32.3286 157.278 31.4479 157.278 30.3494C157.278 29.5445 157.084 28.8343 156.696 28.2188C156.308 27.6032 155.754 27.1203 155.034 26.7699C154.324 26.4195 153.476 26.2443 152.491 26.2443H147.335V33.9716ZM147.335 22.0824H151.895C152.738 22.0824 153.486 21.9356 154.139 21.642C154.802 21.339 155.323 20.9129 155.702 20.3636C156.09 19.8144 156.284 19.1562 156.284 18.3892C156.284 17.3381 155.91 16.4905 155.162 15.8466C154.423 15.2027 153.372 14.8807 152.009 14.8807H147.335V22.0824ZM176.574 39.4261C174.368 39.4261 172.46 38.9574 170.85 38.0199C169.249 37.0729 168.014 35.7566 167.142 34.071C166.271 32.3759 165.836 30.411 165.836 28.1761C165.836 25.9223 166.271 23.9527 167.142 22.267C168.014 20.572 169.249 19.2557 170.85 18.3182C172.46 17.3712 174.368 16.8977 176.574 16.8977C178.781 16.8977 180.684 17.3712 182.285 18.3182C183.894 19.2557 185.135 20.572 186.006 22.267C186.877 23.9527 187.313 25.9223 187.313 28.1761C187.313 30.411 186.877 32.3759 186.006 34.071C185.135 35.7566 183.894 37.0729 182.285 38.0199C180.684 38.9574 178.781 39.4261 176.574 39.4261ZM176.603 34.7386C177.606 34.7386 178.445 34.4545 179.117 33.8864C179.789 33.3087 180.296 32.5227 180.637 31.5284C180.987 30.5341 181.162 29.4025 181.162 28.1335C181.162 26.8646 180.987 25.733 180.637 24.7386C180.296 23.7443 179.789 22.9583 179.117 22.3807C178.445 21.803 177.606 21.5142 176.603 21.5142C175.589 21.5142 174.737 21.803 174.046 22.3807C173.364 22.9583 172.848 23.7443 172.498 24.7386C172.157 25.733 171.986 26.8646 171.986 28.1335C171.986 29.4025 172.157 30.5341 172.498 31.5284C172.848 32.5227 173.364 33.3087 174.046 33.8864C174.737 34.4545 175.589 34.7386 176.603 34.7386ZM196.669 39.4119C195.277 39.4119 194.037 39.1705 192.948 38.6875C191.859 38.1951 190.997 37.4706 190.362 36.5142C189.737 35.5483 189.425 34.3456 189.425 32.9062C189.425 31.6941 189.647 30.6761 190.092 29.8523C190.538 29.0284 191.144 28.3655 191.911 27.8636C192.678 27.3617 193.549 26.983 194.524 26.7273C195.509 26.4716 196.541 26.2917 197.621 26.1875C198.89 26.0549 199.913 25.9318 200.689 25.8182C201.466 25.6951 202.029 25.5152 202.379 25.2784C202.73 25.0417 202.905 24.6913 202.905 24.2273V24.142C202.905 23.2424 202.621 22.5464 202.053 22.054C201.494 21.5616 200.699 21.3153 199.666 21.3153C198.577 21.3153 197.711 21.5568 197.067 22.0398C196.423 22.5133 195.997 23.1098 195.788 23.8295L190.192 23.375C190.476 22.0492 191.035 20.9034 191.868 19.9375C192.701 18.9621 193.776 18.214 195.092 17.6932C196.418 17.1629 197.952 16.8977 199.695 16.8977C200.907 16.8977 202.067 17.0398 203.175 17.3239C204.292 17.608 205.282 18.0483 206.144 18.6449C207.015 19.2415 207.701 20.0085 208.203 20.946C208.705 21.8741 208.956 22.9867 208.956 24.2841V39H203.217V35.9744H203.047C202.697 36.6562 202.228 37.2576 201.641 37.7784C201.054 38.2898 200.348 38.6922 199.524 38.9858C198.7 39.2699 197.749 39.4119 196.669 39.4119ZM198.402 35.2358C199.292 35.2358 200.078 35.0606 200.76 34.7102C201.442 34.3504 201.977 33.8674 202.365 33.2614C202.753 32.6553 202.948 31.9687 202.948 31.2017V28.8864C202.758 29.0095 202.498 29.1231 202.166 29.2273C201.844 29.322 201.48 29.4119 201.073 29.4972C200.665 29.5729 200.258 29.6439 199.851 29.7102C199.444 29.767 199.074 29.8191 198.743 29.8665C198.033 29.9706 197.413 30.1364 196.882 30.3636C196.352 30.5909 195.94 30.8987 195.646 31.2869C195.353 31.6657 195.206 32.1392 195.206 32.7074C195.206 33.5312 195.504 34.161 196.101 34.5966C196.707 35.0227 197.474 35.2358 198.402 35.2358ZM212.851 39V17.1818H218.717V20.9886H218.944C219.342 19.6345 220.01 18.6117 220.947 17.9205C221.885 17.2197 222.964 16.8693 224.186 16.8693C224.489 16.8693 224.816 16.8883 225.166 16.9261C225.516 16.964 225.824 17.0161 226.089 17.0824V22.4517C225.805 22.3665 225.412 22.2907 224.91 22.2244C224.408 22.1581 223.949 22.125 223.533 22.125C222.642 22.125 221.847 22.3191 221.146 22.7074C220.455 23.0862 219.906 23.6165 219.498 24.2983C219.101 24.9801 218.902 25.7661 218.902 26.6562V39H212.851ZM235.442 39.3551C233.785 39.3551 232.284 38.929 230.939 38.0767C229.604 37.215 228.543 35.9508 227.757 34.2841C226.981 32.608 226.593 30.553 226.593 28.1193C226.593 25.6193 226.995 23.5407 227.8 21.8835C228.605 20.2169 229.675 18.9716 231.01 18.1477C232.355 17.3144 233.827 16.8977 235.428 16.8977C236.649 16.8977 237.667 17.1061 238.482 17.5227C239.306 17.9299 239.969 18.4413 240.47 19.0568C240.982 19.6629 241.37 20.2595 241.635 20.8466H241.82V9.90909H247.857V39H241.891V35.5057H241.635C241.351 36.1117 240.949 36.7131 240.428 37.3097C239.916 37.8968 239.249 38.3845 238.425 38.7727C237.611 39.161 236.616 39.3551 235.442 39.3551ZM237.36 34.5398C238.335 34.5398 239.159 34.2746 239.831 33.7443C240.513 33.2045 241.034 32.4517 241.394 31.4858C241.763 30.5199 241.948 29.3883 241.948 28.0909C241.948 26.7936 241.768 25.6667 241.408 24.7102C241.048 23.7538 240.527 23.0152 239.845 22.4943C239.164 21.9735 238.335 21.7131 237.36 21.7131C236.365 21.7131 235.527 21.983 234.845 22.5227C234.164 23.0625 233.648 23.8106 233.297 24.767C232.947 25.7235 232.772 26.8314 232.772 28.0909C232.772 29.3598 232.947 30.482 233.297 31.4574C233.657 32.4233 234.173 33.1809 234.845 33.7301C235.527 34.2699 236.365 34.5398 237.36 34.5398Z" fill="#3D3B8E"/>
</svg>
